<svg width="218" height="90" viewBox="0 0 218 90" fill="none" xmlns="http://www.w3.org/2000/svg">
<path d="M88.7111 0H99.3275L105.353 72.6886H97.7972L97.032 58.6291H90.8153L89.9545 72.6886H82.7812L88.7111 0ZM93.4933 13.8682L91.1978 51.8385H96.6495L94.4497 13.8682L93.9715 6.40808L93.4933 13.8682Z" fill="white"/>
<path d="M108.32 72.6886V0H115.876V72.6886H108.32Z" fill="white"/>
<path d="M130.976 22.8587C130.116 22.8587 129.159 23.2412 128.298 23.9107V66.4718C129.159 66.9501 130.116 67.3326 130.976 67.3326C133.559 67.3326 134.802 62.8374 134.802 44.9522C134.802 27.2582 133.463 22.8587 130.976 22.8587ZM142.453 44.9522C142.453 68.4803 139.297 73.1668 134.133 73.1668C132.124 73.1668 129.829 72.0191 128.298 70.0106L127.629 72.6886H120.743V0H128.298V20.6589C129.542 18.2678 131.741 16.6419 134.133 16.6419C139.202 16.6419 142.453 21.3284 142.453 44.9522Z" fill="white"/>
<path d="M166.133 35.7705V72.6886H159.533L158.672 69.2455C157.142 71.7322 154.56 73.1668 152.073 73.1668C147.865 73.1668 145.187 70.2976 145.187 57.864C145.187 45.813 148.152 41.9872 158.003 40.457L158.672 40.3613V36.2487C158.672 25.6323 157.429 22.8587 155.707 22.8587C154.177 22.8587 153.029 25.441 152.838 34.9097H145.856V34.5271C146.048 20.2763 150.351 16.6419 155.994 16.6419C161.255 16.6419 166.133 19.9894 166.133 35.7705ZM158.003 45.813C153.89 46.3868 152.647 48.3953 152.647 57.0988C152.647 65.1328 153.603 67.3326 155.612 67.3326C156.568 67.3326 157.62 66.9501 158.672 66.4718V45.7173L158.003 45.813Z" fill="white"/>
<path d="M170.712 72.6886V17.1201H177.312L178.268 20.5632C179.798 18.1722 182.476 16.6419 184.963 16.6419C189.171 16.6419 192.041 19.2242 192.041 27.3539V72.6886H184.485V28.7885C184.485 23.8151 183.528 22.4761 181.424 22.4761C180.468 22.4761 179.416 22.8587 178.268 23.3369V72.6886H170.712Z" fill="white"/>
<path d="M204.899 77.3751L205.377 72.6886H201.169L195.047 17.1201H202.794L206.238 60.255L206.716 67.6196L207.194 60.255L210.733 17.1201H218.002L211.402 77.3751C210.255 88.0871 207.768 90 202.699 90C202.029 90 200.595 89.8087 199.734 89.6174V82.8268C200.499 83.0181 201.264 83.1137 202.221 83.1137C203.273 83.1137 204.325 82.1573 204.899 77.3751Z" fill="white"/>
<path fill-rule="evenodd" clip-rule="evenodd" d="M0 37.5959C0 17.3991 16.3727 1.02637 36.5696 1.02637C56.7663 1.02637 73.1392 17.3991 73.1392 37.5959C73.1392 57.7928 56.7663 74.1654 36.5696 74.1654C16.3727 74.1654 0 57.7928 0 37.5959ZM36.5696 4.76603C18.4381 4.76603 3.73967 19.4645 3.73967 37.5959C3.73967 55.7274 18.4381 70.4258 36.5696 70.4258C54.701 70.4258 69.3995 55.7274 69.3995 37.5959C69.3995 19.4645 54.701 4.76603 36.5696 4.76603Z" fill="white"/>
<path fill-rule="evenodd" clip-rule="evenodd" d="M6.71797 37.6056C6.71797 19.4635 19.8938 4.38535 36.5794 4.38535C53.265 4.38535 66.4407 19.4635 66.4407 37.6056C66.4407 55.7477 53.265 70.826 36.5794 70.826C19.8938 70.826 6.71797 55.7478 6.71797 37.6056ZM36.5794 8.12502C22.3464 8.12502 10.4576 21.1191 10.4576 37.6056C10.4576 54.0922 22.3464 67.0864 36.5794 67.0864C50.8124 67.0864 62.701 54.0922 62.701 37.6056C62.701 21.1191 50.8124 8.12502 36.5794 8.12502Z" fill="white"/>
<path fill-rule="evenodd" clip-rule="evenodd" d="M20.3023 16.694C24.3487 11.2747 30.0838 7.74433 36.5794 7.74433C43.0749 7.74433 48.81 11.2747 52.8564 16.694C56.9025 22.113 59.3495 29.5125 59.3495 37.6058C59.3495 45.6989 56.9025 53.0984 52.8564 58.5174C48.81 63.9366 43.0749 67.467 36.5794 67.467C30.0838 67.467 24.3487 63.9366 20.3023 58.5174C16.2561 53.0984 13.8092 45.6989 13.8092 37.6058C13.8092 29.5125 16.2561 22.113 20.3023 16.694ZM23.2988 18.9314C19.7805 23.6433 17.5488 30.2396 17.5488 37.6058C17.5488 44.9719 19.7805 51.568 23.2988 56.28C26.8169 60.9917 31.532 63.7274 36.5794 63.7274C41.6267 63.7274 46.3418 60.9917 49.8598 56.28C53.3781 51.568 55.6098 44.9719 55.6098 37.6058C55.6098 30.2396 53.3781 23.6433 49.8598 18.9314C46.3418 14.2197 41.6267 11.484 36.5794 11.484C31.532 11.484 26.8169 14.2197 23.2988 18.9314Z" fill="white"/>
<path fill-rule="evenodd" clip-rule="evenodd" d="M18.5945 29.8384C18.9681 24.8845 21.0837 20.4254 25.1704 18.0659C29.257 15.7065 34.1765 16.1039 38.6535 18.2573C43.1407 20.4157 47.3809 24.4082 50.4158 29.6648C53.4506 34.9212 54.7881 40.5895 54.4136 45.5547C54.04 50.5085 51.9244 54.9676 47.8378 57.327C43.7511 59.6865 38.8316 59.2891 34.3546 57.1358C29.8674 54.9775 25.6272 50.985 22.5924 45.7286C19.5576 40.472 18.22 34.8036 18.5945 29.8384ZM22.3236 30.1196C22.0127 34.2419 23.1228 39.1679 25.8311 43.8587C28.5393 48.5494 32.2502 51.9738 35.9756 53.7657C39.7112 55.5624 43.2657 55.6485 45.968 54.0884C48.6701 52.5283 50.3728 49.4069 50.6845 45.2734C50.9954 41.1512 49.8853 36.2253 47.1771 31.5346C44.4689 26.8438 40.7579 23.4193 37.0325 21.6274C33.2969 19.8306 29.7424 19.7445 27.0402 21.3046C24.338 22.8647 22.6353 25.9861 22.3236 30.1196Z" fill="white"/>
<path fill-rule="evenodd" clip-rule="evenodd" d="M22.607 26.1416C22.7924 24.5989 23.4041 23.0976 24.7204 22.1008C26.0366 21.1039 27.6474 20.9218 29.1827 21.1614C30.7105 21.3998 32.3255 22.073 33.9192 23.0173C37.115 24.9111 40.5638 28.0974 43.5882 32.0907C46.6128 36.0843 48.7452 40.2674 49.7021 43.8568C50.1793 45.6467 50.3896 47.3837 50.2051 48.9189C50.0197 50.4617 49.4078 51.9628 48.0916 52.9597C46.7754 53.9565 45.1646 54.1386 43.6294 53.8991C42.1016 53.6606 40.4866 52.9875 38.893 52.0432C35.6972 50.1495 32.2483 46.9633 29.2238 42.9697C26.1994 38.9764 24.0669 34.7932 23.11 31.2037C22.6328 29.4138 22.4225 27.6768 22.607 26.1416ZM26.7235 30.2404C27.5274 33.256 29.3992 37.0073 32.2049 40.7119C35.0109 44.4168 38.1146 47.235 40.7994 48.826C42.1462 49.624 43.3036 50.0633 44.206 50.2041C45.101 50.3438 45.5783 50.172 45.8338 49.9785C46.0893 49.785 46.384 49.372 46.4921 48.4727C46.6011 47.5659 46.4919 46.3327 46.0887 44.8201C45.2848 41.8046 43.413 38.0534 40.607 34.3485C37.8013 30.6438 34.6976 27.8256 32.0127 26.2346C30.6659 25.4365 29.5085 24.9972 28.606 24.8563C27.711 24.7166 27.2337 24.8885 26.9782 25.0819C26.7227 25.2754 26.428 25.6883 26.32 26.5877C26.211 27.4946 26.3202 28.7278 26.7235 30.2404Z" fill="white"/>
</svg>
